<svg xmlns="http://www.w3.org/2000/svg" height="40px" viewBox="0 0 629 231" fill="none">
                     <path class="pathLogo" d="M601.33 78.4075C587.19 92.5475 564.18 92.5475 550.03 78.4075L536.34 64.7075C538.4 63.4875 540.72 62.8775 543.04 62.8775C546.42 62.8775 549.79 64.1675 552.37 66.7375L557.03 71.3975C567.31 81.6775 584.05 81.6875 594.34 71.3975C604.62 61.1175 604.62 44.3775 594.34 34.0875C584.06 23.7975 567.32 23.8075 557.03 34.0875L501.07 90.0475C490.79 100.327 477.27 105.478 463.76 105.478C450.25 105.478 436.74 100.337 426.45 90.0475C405.88 69.4775 405.88 35.9975 426.45 15.4275C447.02 -5.1425 480.5 -5.1425 501.07 15.4275L514.72 29.3075L507.36 36.2675L494.08 22.4175C477.37 5.70752 450.17 5.70752 433.45 22.4175C416.74 39.1275 416.74 66.3275 433.45 83.0475C441.81 91.4075 452.79 95.5775 463.76 95.5775C474.73 95.5775 485.72 91.3975 494.07 83.0475L550.03 27.0875C564.18 12.9475 587.19 12.9375 601.33 27.0875C615.47 41.2275 615.47 64.2475 601.33 78.3875V78.4075Z" fill="#1B5B2A" />
                    <path class="pathLogo" d="M612.99 90.0675C592.42 110.638 558.95 110.638 538.37 90.0675L533.71 85.4075C529.39 81.0875 528.69 74.5075 531.63 69.4575L545.37 83.0775C562.09 99.7875 589.28 99.7875 606 83.0775C622.71 66.3575 622.71 39.1675 606 22.4475C589.29 5.73752 562.09 5.72752 545.37 22.4475L489.41 78.4075C475.27 92.5475 452.25 92.5475 438.11 78.4075C423.97 64.2675 423.97 41.2475 438.11 27.1075C452.25 12.9675 475.27 12.9575 489.41 27.1075L502.81 40.5475L503.53 39.9075L495.73 47.2775L482.41 34.0975C472.13 23.8075 455.39 23.8175 445.1 34.0975C434.82 44.3775 434.82 61.1175 445.1 71.4075C455.39 81.6875 472.13 81.6975 482.41 71.4075L538.37 15.4475C558.94 -5.12248 592.42 -5.12248 612.99 15.4475C633.56 36.0175 633.56 69.4975 612.99 90.0675Z" fill="#1B5B2A" />
                    <path class="pathLogo" d="M450.34 40.2277C457.27 32.8877 468.83 32.5577 476.17 39.4777L489.46 52.0177L476.92 65.3077C469.99 72.6477 458.43 72.9777 451.09 66.0577C443.75 59.1277 443.42 47.5677 450.34 40.2277ZM470.09 58.9077L476.23 52.3977L469.74 46.2777C466.16 42.9077 460.51 43.0677 457.14 46.6477C453.77 50.2277 453.93 55.8777 457.51 59.2477C461.08 62.6177 466.71 62.4577 470.09 58.9077Z" fill="#1B5B2A" />
                    <path class="pathLogo" d="M536.717 121.467H520L556.115 192.427V230.467H571.885V192.731L608 121.467H591.441L569.362 166.489C568.521 168.385 567.68 170.438 566.839 172.65L564.631 178.969H563.527L561.319 172.65C560.583 170.438 559.742 168.332 558.796 166.331L536.717 121.467Z" fill="#1B5B2A" />
                    <path class="pathLogo" d="M15.7742 121.625V230.467H0V121.625H15.7742Z" fill="#1B5B2A" />
                    <path class="pathLogo" d="M127.389 121.625V224.315C127.389 228.417 125.444 230.467 121.553 230.467H107.987C106.199 230.467 104.78 230.047 103.728 229.205C102.781 228.364 101.94 227.155 101.204 225.577L65.5543 152.069C64.6078 149.966 63.5036 147.6 62.2417 144.971C60.9798 142.237 60.0333 139.713 59.4023 137.399H57.0362C57.2465 139.818 57.4043 142.289 57.5094 144.813C57.6146 147.232 57.6672 149.703 57.6672 152.227V230.467H42.2084V127.777C42.2084 123.676 44.2065 121.625 48.2026 121.625H61.2952C63.083 121.625 64.5027 122.046 65.5543 122.887C66.6059 123.728 67.4998 124.938 68.2359 126.515L102.624 198.13C103.781 200.338 104.99 202.862 106.252 205.702C107.619 208.541 108.933 211.328 110.195 214.062H112.719C112.509 211.223 112.351 208.436 112.246 205.702C112.141 202.862 112.088 200.076 112.088 197.341V121.625H127.389Z" fill="#1B5B2A" />
                    <path class="pathLogo" d="M255.161 121.625V230.467H239.386V121.625H255.161Z" fill="#1B5B2A" />
                    <path class="pathLogo" d="M366.776 121.625V224.315C366.776 228.417 364.83 230.467 360.939 230.467H347.373C345.586 230.467 344.166 230.047 343.114 229.205C342.168 228.364 341.327 227.155 340.59 225.577L304.941 152.069C303.994 149.966 302.89 147.6 301.628 144.971C300.366 142.237 299.42 139.713 298.789 137.399H296.423C296.633 139.818 296.791 142.289 296.896 144.813C297.001 147.232 297.054 149.703 297.054 152.227V230.467H281.595V127.777C281.595 123.676 283.593 121.625 287.589 121.625H300.682C302.469 121.625 303.889 122.046 304.941 122.887C305.992 123.728 306.886 124.938 307.622 126.515L342.01 198.13C343.167 200.338 344.376 202.862 345.638 205.702C347.005 208.541 348.32 211.328 349.582 214.062H352.106C351.895 211.223 351.738 208.436 351.632 205.702C351.527 202.862 351.475 200.076 351.475 197.341V121.625H366.776Z" fill="#1B5B2A" />
                    <path class="pathLogo" d="M409.052 121.625V230.467H393.278V121.625H409.052Z" fill="#1B5B2A" />
                    <path class="pathLogo" d="M510.887 121.625V135.191H476.184V230.467H460.409V135.191L426 135.467L425.864 121.625L510.887 121.625ZM510.887 121.625V135.191H476.184V230.467H460.409V135.191H425.864V121.625L510.887 121.625Z" fill="#1B5B2A" />
                    <path class="pathLogo" d="M190.645 121.625C185.387 121.52 180.182 121.467 175.029 121.467C168.509 121.467 163.303 123.255 159.412 126.831C155.521 130.301 153.576 135.191 153.576 141.501V230.467H169.35V180.936H214.149V168.632H169.35V144.498C169.35 141.027 170.139 138.503 171.716 136.926C173.399 135.349 176.028 134.56 179.603 134.56H220.143L220.932 122.571C216.305 122.151 211.415 121.888 206.262 121.783C201.109 121.678 195.903 121.625 190.645 121.625Z" fill="#1B5B2A" />
                </svg>